<mxfile host="app.diagrams.net" modified="2020-09-08T01:22:05.580Z" agent="5.0 (Windows NT 10.0; Win64; x64) AppleWebKit/537.36 (KHTML, like Gecko) Chrome/85.0.4183.83 Safari/537.36" etag="UTXX-H8qKRWDcBvJiDfJ" version="13.6.2" type="github">
  <diagram name="Page-1" id="929967ad-93f9-6ef4-fab6-5d389245f69c">
    <mxGraphModel dx="1422" dy="762" grid="1" gridSize="10" guides="1" tooltips="1" connect="1" arrows="1" fold="1" page="1" pageScale="1.5" pageWidth="1169" pageHeight="826" background="none" math="0" shadow="0">
      <root>
        <mxCell id="0" style=";html=1;" />
        <mxCell id="1" style=";html=1;" parent="0" />
        <mxCell id="1672d66443f91eb5-1" value="&lt;p style=&quot;margin: 0px ; margin-top: 4px ; margin-left: 10px ; text-align: left&quot;&gt;&lt;b&gt;Services call to search by company name&lt;/b&gt;&lt;/p&gt;" style="html=1;strokeWidth=1;shape=mxgraph.sysml.package;html=1;overflow=fill;whiteSpace=wrap;fillColor=none;gradientColor=none;fontSize=12;align=center;labelX=327.64;" parent="1" vertex="1">
          <mxGeometry x="360" y="295" width="850" height="485" as="geometry" />
        </mxCell>
        <mxCell id="OIbwpQhaK33VKQebFRam-9" style="edgeStyle=orthogonalEdgeStyle;rounded=0;orthogonalLoop=1;jettySize=auto;html=1;exitX=0.25;exitY=1;exitDx=0;exitDy=0;exitPerimeter=0;entryX=0;entryY=0;entryDx=0;entryDy=55;entryPerimeter=0;" edge="1" parent="1" source="1672d66443f91eb5-2" target="OIbwpQhaK33VKQebFRam-2">
          <mxGeometry relative="1" as="geometry" />
        </mxCell>
        <mxCell id="OIbwpQhaK33VKQebFRam-10" value="2. The query&amp;nbsp; service returns&lt;br&gt;&amp;nbsp;a list of Company CEIDs" style="edgeLabel;html=1;align=center;verticalAlign=middle;resizable=0;points=[];" vertex="1" connectable="0" parent="OIbwpQhaK33VKQebFRam-9">
          <mxGeometry x="-0.3551" y="1" relative="1" as="geometry">
            <mxPoint as="offset" />
          </mxGeometry>
        </mxCell>
        <mxCell id="1672d66443f91eb5-2" value="BE Console" style="shape=folder;tabWidth=80;tabHeight=20;tabPosition=left;strokeWidth=1;html=1;whiteSpace=wrap;align=center;fontSize=12;fontStyle=1" parent="1" vertex="1">
          <mxGeometry x="437" y="355" width="160" height="90" as="geometry" />
        </mxCell>
        <mxCell id="1672d66443f91eb5-23" value="Services calls diagram when the user search in the IBMer by company name" style="text;strokeColor=none;fillColor=none;html=1;fontSize=24;fontStyle=1;verticalAlign=middle;align=center;" parent="1" vertex="1">
          <mxGeometry x="120" y="40" width="1510" height="40" as="geometry" />
        </mxCell>
        <mxCell id="OIbwpQhaK33VKQebFRam-14" style="edgeStyle=orthogonalEdgeStyle;rounded=0;orthogonalLoop=1;jettySize=auto;html=1;exitX=0.5;exitY=1;exitDx=0;exitDy=0;exitPerimeter=0;entryX=0;entryY=0;entryDx=160;entryDy=55;entryPerimeter=0;" edge="1" parent="1" source="OIbwpQhaK33VKQebFRam-1" target="OIbwpQhaK33VKQebFRam-2">
          <mxGeometry relative="1" as="geometry" />
        </mxCell>
        <mxCell id="OIbwpQhaK33VKQebFRam-15" value="4. Show the results (Companies information)&lt;br&gt;&amp;nbsp;in the UI" style="edgeLabel;html=1;align=center;verticalAlign=middle;resizable=0;points=[];" vertex="1" connectable="0" parent="OIbwpQhaK33VKQebFRam-14">
          <mxGeometry x="-0.265" y="-1" relative="1" as="geometry">
            <mxPoint as="offset" />
          </mxGeometry>
        </mxCell>
        <mxCell id="OIbwpQhaK33VKQebFRam-1" value="BE Connect" style="shape=folder;tabWidth=80;tabHeight=20;tabPosition=left;strokeWidth=1;html=1;whiteSpace=wrap;align=center;fontSize=12;fontStyle=1" vertex="1" parent="1">
          <mxGeometry x="947" y="355" width="160" height="90" as="geometry" />
        </mxCell>
        <mxCell id="OIbwpQhaK33VKQebFRam-2" value="FE Console" style="shape=folder;tabWidth=80;tabHeight=20;tabPosition=left;strokeWidth=1;html=1;whiteSpace=wrap;align=center;fontSize=12;fontStyle=1" vertex="1" parent="1">
          <mxGeometry x="717" y="640" width="160" height="90" as="geometry" />
        </mxCell>
        <mxCell id="OIbwpQhaK33VKQebFRam-3" value="" style="endArrow=classic;html=1;exitX=0;exitY=0;exitDx=40;exitDy=0;exitPerimeter=0;entryX=0.75;entryY=1;entryDx=0;entryDy=0;entryPerimeter=0;" edge="1" parent="1" source="OIbwpQhaK33VKQebFRam-2" target="1672d66443f91eb5-2">
          <mxGeometry relative="1" as="geometry">
            <mxPoint x="820" y="590" as="sourcePoint" />
            <mxPoint x="920" y="590" as="targetPoint" />
          </mxGeometry>
        </mxCell>
        <mxCell id="OIbwpQhaK33VKQebFRam-4" value="1. Call the query service with the &lt;br&gt;user&amp;nbsp;&amp;nbsp;search string. Ej. &quot;Sirius&quot;" style="edgeLabel;resizable=0;html=1;align=center;verticalAlign=middle;" connectable="0" vertex="1" parent="OIbwpQhaK33VKQebFRam-3">
          <mxGeometry relative="1" as="geometry" />
        </mxCell>
        <mxCell id="OIbwpQhaK33VKQebFRam-12" value="" style="endArrow=classic;html=1;exitX=0;exitY=0;exitDx=80;exitDy=20;exitPerimeter=0;entryX=0;entryY=0;entryDx=0;entryDy=37.5;entryPerimeter=0;" edge="1" parent="1" source="OIbwpQhaK33VKQebFRam-2" target="OIbwpQhaK33VKQebFRam-1">
          <mxGeometry relative="1" as="geometry">
            <mxPoint x="820" y="680" as="sourcePoint" />
            <mxPoint x="920" y="680" as="targetPoint" />
            <Array as="points">
              <mxPoint x="870" y="530" />
            </Array>
          </mxGeometry>
        </mxCell>
        <mxCell id="OIbwpQhaK33VKQebFRam-13" value="3. Request the companies information,&lt;br&gt;sending the list of company CEIDs" style="edgeLabel;resizable=0;html=1;align=center;verticalAlign=middle;" connectable="0" vertex="1" parent="OIbwpQhaK33VKQebFRam-12">
          <mxGeometry relative="1" as="geometry" />
        </mxCell>
      </root>
    </mxGraphModel>
  </diagram>
</mxfile>
